<?xml version="1.0" encoding="UTF-8"?>
<!-- Generated by jsxcad -->
<!DOCTYPE svg PUBLIC "-//W3C//DTD SVG 1.1 Tiny//EN" "http://www.w3.org/Graphics/SVG/1.1/DTD/svg11-tiny.dtd">
<svg baseProfile="tiny" height="10.000000000000007mm" width="8.660254037844396mm" viewBox="-4.330127018922199 -5.0000000000000036 8.660254037844396 10.000000000000007" version="1.1" stroke="black" stroke-width=".1" fill="none" xmlns="http://www.w3.org/2000/svg">
<path fill="#dfb1e8" stroke="#dfb1e8" d="M3.0616169978683826e-16 -4.999999999999999 L3.0616169978683826e-16 -4.999999999999999 L-4.3301270189221945 -2.499999999999997 L-4.3301270189221945 -2.499999999999997 z"/>
<path fill="#dfb1e8" stroke="#dfb1e8" d="M4.330127018922192 -2.5 L4.330127018922192 -2.5 L3.061616997868382e-16 -5 L3.061616997868382e-16 -5 z"/>
<path fill="#dfb1e8" stroke="#dfb1e8" d="M1.4163847244119946e-15 5 L1.4163847244119946e-15 5 L4.330127018922193 2.499999999999999 L4.330127018922193 2.499999999999999 z"/>
<path fill="#dfb1e8" stroke="#dfb1e8" d="M4.330127018922193 2.4999999999999987 L4.330127018922193 2.4999999999999987 L4.330127018922193 -2.4999999999999996 L4.330127018922193 -2.4999999999999996 z"/>
<path fill="#dfb1e8" stroke="#dfb1e8" d="M-4.330127018922192 2.5000000000000018 L-4.330127018922192 2.5000000000000018 L1.4163847244119944e-15 4.999999999999999 L1.4163847244119944e-15 4.999999999999999 z"/>
<path fill="#dfb1e8" stroke="#dfb1e8" d="M-4.3301270189221945 -2.4999999999999964 L-4.3301270189221945 -2.4999999999999964 L-4.330127018922193 2.5000000000000013 L-4.330127018922193 2.5000000000000013 z"/>
<path fill="#dfb1e8" stroke="#dfb1e8" d="M3.061616997868383e-16 -4.999999999999999 L-4.330127018922195 -2.4999999999999964 L-4.330127018922193 2.5000000000000013 L1.4163847244119948e-15 4.999999999999999 L4.330127018922194 2.4999999999999987 L4.330127018922193 -2.4999999999999996 z"/>
<path fill="#dfb1e8" stroke="#dfb1e8" d="M3.061616997868383e-16 -4.999999999999999 L4.330127018922193 -2.4999999999999996 L4.330127018922194 2.4999999999999987 L1.4163847244119948e-15 4.999999999999999 L-4.330127018922193 2.5000000000000013 L-4.330127018922195 -2.4999999999999964 z"/>
</svg>